# xmcd
#
# Track frame offsets: 
#        150
#        12674
#        26023
#        34103
#        46121
#        53121
#        65054
#        74445
#        84813
#        97657
#        108667
#        117423
#        129188
#        142093
#        152574
#        163837
#        173855
#        185321
#        195039
#        204938
#        216856
#        227228
#        233569
#        245298
#        255396
#
# Disc length: 3598 seconds
#
# Revision: 2
# Processed by: cddbd v1.5.2PL0 Copyright (c) Steve Scherf et al.
# Submitted via: ExactAudioCopy v0.99pb5
#
DISCID=4a0e0c19
DTITLE=Various Artist - Rio Bravo - Western And Other Movie and TV Themes
DYEAR=2000
DGENRE=Western
TTITLE0=Dean Martin - My rifle, my pony and me
TTITLE1=Nelson Riddle Orchestra - De guello
TTITLE2=Sheb Wooley - Rawhide
TTITLE3=Vaughn Monroe - The ride back
TTITLE4=Frankie Laine - Man without a star (a whale of a tale)
TTITLE5=Gene Autry - Back in the saddle again
TTITLE6=Percy Faith And His Orchestra - The Virginian
TTITLE7=Virginia Mayo - I leaned on a man
TTITLE8=Frankie Avalon - Tennessee babe
TTITLE9=Frankie Avalon - Green leaves of summer
TTITLE10=Frankie Avalon - Here's to the ladies
TTITLE11=Frankie Avalon - Ballad of the Alamo
TTITLE12=Tex Ritter and Rex Koury - Gunsmoke
TTITLE13=Johnny Cash - Bonanza!
TTITLE14=Praire Chiefs - The ballad of Paladin
TTITLE15=Ed Ames - Ballad of the war wagon
TTITLE16=Hugo Friedhofer and Orchestra - Theme from "One Eyed Jacks"
TTITLE17=Sons Of The Pioneers - Maverick
TTITLE18=Julie London - Saddle the wind
TTITLE19=Sons Of The Pioneers - Chuckawalla swing
TTITLE20=Carl Dobkins Jr. - Pretty little girl in the yellow dress
TTITLE21=Henry Fonda - Rolling stone
TTITLE22=Frankie Laine - Strange lady in town
TTITLE23=Tony Martin - Vera Cruz
TTITLE24=Anthony Perkins - The Kentuckian song
EXTD=YEAR: 2000
EXTT0=
EXTT1=
EXTT2=
EXTT3=
EXTT4=
EXTT5=
EXTT6=
EXTT7=
EXTT8=
EXTT9=
EXTT10=
EXTT11=
EXTT12=
EXTT13=
EXTT14=
EXTT15=
EXTT16=
EXTT17=
EXTT18=
EXTT19=
EXTT20=
EXTT21=
EXTT22=
EXTT23=
EXTT24=
PLAYORDER=
